<svg width="96" height="96" xmlns="http://www.w3.org/2000/svg"><g fill="none" fill-rule="evenodd"><path d="M31.583 2.895C6.712 11.947-6.157 39.546 2.895 64.417c9.052 24.871 36.651 37.74 61.522 28.688 24.871-9.052 37.74-36.651 28.688-61.522C84.053 6.712 56.454-6.157 31.583 2.895" fill="#F9BC26"/><path d="M77.371 31.93c-1.916 4.108-6.818 5.892-10.927 3.976L64.2 40.722a13.452 13.452 0 007.643 1.124c3.14 12.127-3.412 24.924-15.42 29.295-12.007 4.37-25.252-1.222-30.642-12.53a13.452 13.452 0 005.133-5.774l-4.816-2.245c-1.916 4.108-6.818 5.892-10.927 3.977l-2.245 4.815a13.458 13.458 0 007.86 1.093C27.206 74.51 43.49 81.502 58.24 76.134c14.748-5.368 22.73-21.192 18.628-36.07a13.456 13.456 0 005.319-5.89L77.37 31.93z" fill="#000"/><path d="M38.359 51.096c2.07-.754 1.774-6.79-.662-13.482-2.436-6.693-6.089-11.507-8.16-10.754-2.07.754-1.774 6.79.662 13.483 2.436 6.692 6.089 11.506 8.16 10.753m19.017-6.922c2.07-.754 1.774-6.79-.662-13.482-2.436-6.692-6.089-11.507-8.16-10.753-2.07.753-1.774 6.79.662 13.482 2.436 6.692 6.09 11.507 8.16 10.753" fill="#000"/></g></svg>