<svg xmlns="http://www.w3.org/2000/svg" xmlns:xlink="http://www.w3.org/1999/xlink" width="58" height="93"><defs><path id="a" d="M0 0h56.74v91.362H0z"/></defs><g fill="none" fill-rule="evenodd" transform="translate(.555 .25)"><mask id="b" fill="#fff"><use xlink:href="#a"/></mask><path fill="#020303" d="M49.964 79.205c-3.21 5.184-8.777 8.157-15.27 8.157-12.618 0-24.315-8.282-29.804-21.1-1.699-3.968-.692-7.531.654-8.476.222-.158.56-.394 1.305.3l.16.15c.23.253.451.506.7.759a89.562 89.562 0 003.315 3.215c1.544 1.566 3.088 3.176 3.878 4.106.278.327.408.742.367 1.168a1.56 1.56 0 01-.586 1.08 1.572 1.572 0 01-2.06-.083l-2.092-2.044-2.796 2.86 2.103 2.057a5.592 5.592 0 007.343.334 5.518 5.518 0 002.02-3.571c1.541.693 2.87.976 4.001.976.982 0 1.82-.208 2.527-.531.81 2.814 2.574 5.642 5.856 8.118l2.41-3.193c-8.697-6.562-3.002-15.53-2.76-15.901l1.162-1.756-1.813-1.07c-.38-.225-9.365-5.525-12.455-7.242a8.847 8.847 0 01-1.127-.747c-.165-.142-.33-.284-.498-.42-2.309-2.128-2.227-4.825-1.838-6.543l27.046 8.599c3.195.88 5.801 3.062 7.335 6.144 4.583 9.209 4.917 18.195.917 24.654zM7.598 47.649c.382-.357.88-.516 1.45-.516 1.344 0 3.097.884 4.711 2.143.178.163.377.318.572.475.35.299.692.606 1.015.93 4.863 4.878 9.832 10.208 9.82 12.757-.002.299-.064.635-.504 1.067-.374.368-1.367 1.346-4.657-.45-1.752-.954-3.804-2.521-6.2-4.721a229.881 229.881 0 00-4.012-3.97c-1.947-2.187-3.03-4.302-2.997-5.901.016-.741.271-1.318.802-1.814zm9.95-41.523l-.027-.097a1.394 1.394 0 01.12-1.085c.222-.41.618-.714 1.114-.858 1.003-.291 2.08.18 2.408 1.058l12.676 33.54c.485 1.263 1.638 2.205 3.01 2.458 2.153.4 4.207-.911 4.677-2.985l6.831-30.668.021-.11c.146-.88 1.096-1.504 2.118-1.386 1.006.113 1.728.88 1.648 1.715L47.721 46.96c-1.476-1.078-3.118-1.905-4.873-2.387l-17.222-5.477-8.079-32.97zm35.08 46.642a16.339 16.339 0 00-1.296-2.128l4.79-42.515c.296-3.064-1.978-5.747-5.178-6.107-3.13-.351-5.978 1.686-6.502 4.649l-6.805 30.549-.06.044-12.67-33.522C23.85.904 20.66-.628 17.64.245c-1.528.443-2.776 1.433-3.513 2.786a5.383 5.383 0 00-.454 4.09l7.487 30.555-8.814-2.803-.75 1.575c-.768 1.612-1.406 4.186-1.013 6.862-2.089-.434-4.102-.093-5.717 1.417-1.315 1.229-2.03 2.837-2.069 4.65-.032 1.484.382 3.062 1.215 4.687a5.196 5.196 0 00-.769.449c-2.922 2.054-4.48 7.599-2.029 13.324 6.118 14.29 19.26 23.525 33.48 23.525 7.792 0 14.772-3.757 18.67-10.051 4.746-7.663 4.477-18.066-.736-28.543z" mask="url(#b)"/></g></svg>