<svg width="48" height="48" xmlns="http://www.w3.org/2000/svg"><path d="M9.64 38.36A20.176 20.176 0 0024 44.307a20.176 20.176 0 0014.36-5.949A20.176 20.176 0 0044.308 24 20.173 20.173 0 0038.36 9.642 20.173 20.173 0 0024 3.692 20.173 20.173 0 009.64 9.641 20.173 20.173 0 003.692 24 20.176 20.176 0 009.64 38.36M7.03 7.03A23.843 23.843 0 000 24c0 6.41 2.497 12.437 7.03 16.97A23.845 23.845 0 0024 48a23.84 23.84 0 0016.97-7.03A23.843 23.843 0 0048 24a23.84 23.84 0 00-7.03-16.97A23.84 23.84 0 0024 0 23.843 23.843 0 007.03 7.03zm24.355 10.508a2.769 2.769 0 115.537 0 2.769 2.769 0 01-5.537 0zm-15.692 2.77a2.77 2.77 0 110-5.539 2.77 2.77 0 010 5.539zM11.077 24c0 6.499 4.823 11.893 11.077 12.791v-7.253h6.634L23.33 13.846h3.909l6.743 19.385h-8.136v7.384h-1.845c-9.162 0-16.616-7.453-16.616-16.615h3.692z" fill-rule="evenodd"/></svg>