<svg width="144" height="32" xmlns="http://www.w3.org/2000/svg"><g fill="none" fill-rule="evenodd"><path d="M0 0h144v32H0z"/><path d="M7.279 15.975c0 4.271 3.169 7.816 7.279 8.406v-4.766h4.359L15.33 9.303h2.57l4.43 12.738h-5.346v4.853H15.77c-6.02 0-10.918-4.898-10.918-10.919h2.426zm3.033-2.426a1.82 1.82 0 110-3.64 1.82 1.82 0 010 3.64zm10.311-1.82a1.82 1.82 0 113.64 0 1.82 1.82 0 01-3.64 0zM2.426 15.975c0-3.564 1.388-6.915 3.909-9.435a13.257 13.257 0 019.435-3.91c3.564 0 6.915 1.388 9.436 3.909a13.256 13.256 0 013.908 9.435 13.26 13.26 0 01-3.908 9.437 13.257 13.257 0 01-9.436 3.908 13.257 13.257 0 01-9.436-3.909 13.257 13.257 0 01-3.909-9.436zm-2.426 0c0 4.213 1.64 8.173 4.62 11.152a15.668 15.668 0 0011.151 4.62c4.212 0 8.173-1.641 11.151-4.62a15.668 15.668 0 004.62-11.152c0-4.212-1.64-8.172-4.62-11.151A15.668 15.668 0 0015.771.204a15.668 15.668 0 00-11.152 4.62A15.668 15.668 0 000 15.975zm76.501 1.545a5.218 5.218 0 00-5.211-5.213 5.218 5.218 0 00-5.213 5.212 5.218 5.218 0 005.213 5.212 5.218 5.218 0 005.21-5.211zm2.934 0c0 4.49-3.654 8.144-8.145 8.144-4.492 0-8.146-3.654-8.146-8.145s3.654-8.145 8.146-8.145c4.49 0 8.145 3.654 8.145 8.145zm-24.209 3.484l-3.773-11.24h-2.364L45.344 21 41.68 9.822h-3.132l5.468 15.743h2.475l3.778-11.01 3.751 11.01h2.446l5.499-15.743H58.89l-3.664 11.182zm88.339-11.572c-.74-.02-1.45.071-2.106.276a6.274 6.274 0 00-1.805.902 7.17 7.17 0 00-1.643 1.66l-.178.249V9.69h-2.942v15.63h2.942v-6.3c0-1.069.148-2.022.44-2.834.29-.805.691-1.486 1.193-2.024a4.86 4.86 0 011.759-1.209c.674-.27 1.4-.406 2.158-.406h.533V9.441l-.351-.009zm-14.762 6.89l-.018-.113a7.026 7.026 0 00-.345-1.337 4.784 4.784 0 00-.876-1.503 4.195 4.195 0 00-1.356-1.02c-.525-.252-1.148-.38-1.853-.38-.61 0-1.182.12-1.699.355-.523.238-.99.57-1.388.986-.402.42-.735.923-.993 1.498a6.086 6.086 0 00-.427 1.399l-.021.115h8.976zm2.631-1.897c.327.983.492 2.053.492 3.18v.375c0 .112-.01.242-.033.396l-.045.311h-12.025l.02.115a5.39 5.39 0 00.486 1.514 4.967 4.967 0 001.115 1.48 4.63 4.63 0 001.519.907 5.335 5.335 0 001.821.309c.998 0 1.86-.18 2.562-.536.3-.153.603-.335.9-.543l1.767 1.997c-.465.36-.952.672-1.447.928-1.038.535-2.33.806-3.841.806a8.22 8.22 0 01-3.1-.59 7.777 7.777 0 01-2.552-1.665 7.986 7.986 0 01-1.735-2.565c-.426-.992-.642-2.1-.642-3.296v-.058c0-1.114.192-2.176.572-3.154a8.037 8.037 0 011.597-2.58 7.503 7.503 0 012.445-1.743c.944-.424 1.988-.639 3.104-.639 1.177 0 2.248.22 3.183.656a7.003 7.003 0 012.376 1.78 7.697 7.697 0 011.461 2.615zm-20.009 3.094a5.218 5.218 0 00-5.211-5.212 5.218 5.218 0 00-5.212 5.212 5.218 5.218 0 005.212 5.212 5.217 5.217 0 005.211-5.212zm2.934 0c0 4.491-3.43 8.145-7.647 8.145-2.066 0-4.003-.866-5.454-2.438l-.17-.185v2.278h-2.942V4.475h2.942v7.522l.17-.185c1.45-1.572 3.388-2.438 5.454-2.438 4.217 0 7.647 3.654 7.647 8.145zM81.597 9.691H94.89v1.906l-9.497 11.126h9.497v2.596H81.251v-1.907l9.47-11.126h-9.124V9.691z" fill="#000"/></g></svg>